<svg width="127" height="70" viewBox="0 0 127 70" fill="none" xmlns="http://www.w3.org/2000/svg">
<path d="M2.5 45.6719C2.46094 44.6953 2.42188 43.849 2.38281 43.1328C2.34375 42.4036 2.30469 41.7461 2.26562 41.1602C2.23958 40.5742 2.22005 40.0339 2.20703 39.5391C2.19401 39.0443 2.1875 38.5365 2.1875 38.0156C2.1875 36.6745 2.24609 35.6328 2.36328 34.8906C2.49349 34.1354 2.76693 33.7253 3.18359 33.6602L5.52734 33.2891C5.59245 33.276 5.65104 33.2695 5.70312 33.2695C5.76823 33.2565 5.83333 33.25 5.89844 33.25C6.34115 33.25 6.67969 33.3802 6.91406 33.6406C7.16146 33.901 7.29167 34.2005 7.30469 34.5391L6.54297 46.9023L6.81641 46.8828L11.9531 34.6367C11.9922 34.4544 12.0768 34.2786 12.207 34.1094C12.3372 33.9401 12.5065 33.7969 12.7148 33.6797C12.9232 33.5495 13.151 33.4453 13.3984 33.3672C13.6589 33.2891 13.9323 33.25 14.2188 33.25C14.974 33.25 15.5794 33.4062 16.0352 33.7188C16.4909 34.0182 16.7188 34.4089 16.7188 34.8906C16.7188 35.2552 16.6667 35.6003 16.5625 35.9258C16.4714 36.2513 16.3346 36.6094 16.1523 37C15.9831 37.3776 15.7747 37.8008 15.5273 38.2695C15.293 38.7383 15.0326 39.2917 14.7461 39.9297C14.6549 40.1641 14.5768 40.4049 14.5117 40.6523C14.4466 40.8737 14.388 41.1276 14.3359 41.4141C14.2969 41.6875 14.2773 41.974 14.2773 42.2734C14.2773 42.5859 14.3164 42.8919 14.3945 43.1914C14.4727 43.4909 14.6094 43.7643 14.8047 44.0117C15 44.2461 15.2669 44.4349 15.6055 44.5781C15.944 44.7214 16.3802 44.793 16.9141 44.793C17.3047 44.793 17.7539 44.6953 18.2617 44.5C18.7826 44.2917 19.2708 44.0573 19.7266 43.7969C20.2604 43.4974 20.8073 43.1589 21.3672 42.7812V47.3711C20.5078 47.918 19.6159 48.3542 18.6914 48.6797C17.7799 49.0052 16.9076 49.168 16.0742 49.168C15.3711 49.168 14.7396 49.0638 14.1797 48.8555C13.6328 48.6341 13.1641 48.3411 12.7734 47.9766C12.3958 47.612 12.0964 47.2018 11.875 46.7461C11.6667 46.2904 11.556 45.8151 11.543 45.3203C11.1654 46.1016 10.7357 46.9023 10.2539 47.7227C9.77214 48.543 9.27083 49.2852 8.75 49.9492C8.24219 50.6133 7.72786 51.1602 7.20703 51.5898C6.69922 52.0065 6.21745 52.2148 5.76172 52.2148C5.00651 52.2148 4.42057 52.026 4.00391 51.6484C3.58724 51.2578 3.27474 50.7695 3.06641 50.1836C2.87109 49.5977 2.74089 48.9596 2.67578 48.2695C2.6237 47.5794 2.57812 46.9219 2.53906 46.2969L2.5 45.6719ZM40.6641 47.2148C40.3646 47.6315 39.9609 48.1198 39.4531 48.6797C38.9583 49.2396 38.3984 49.7734 37.7734 50.2812C37.1484 50.7891 36.4779 51.2188 35.7617 51.5703C35.0456 51.9219 34.3294 52.0977 33.6133 52.0977C32.7539 52.0977 32.0378 51.8242 31.4648 51.2773C30.8919 50.7174 30.3971 49.9102 29.9805 48.8555C29.668 49.2201 29.2839 49.5911 28.8281 49.9688C28.3724 50.3464 27.8711 50.6914 27.3242 51.0039C26.7904 51.3034 26.2305 51.5508 25.6445 51.7461C25.0586 51.9414 24.4727 52.0391 23.8867 52.0391C23.2617 52.0391 22.6497 51.9154 22.0508 51.668C21.4648 51.4076 20.944 51.043 20.4883 50.5742C20.0326 50.0924 19.668 49.513 19.3945 48.8359C19.1211 48.1458 18.9844 47.3711 18.9844 46.5117C18.9844 45.5352 19.1211 44.5326 19.3945 43.5039C19.668 42.4753 20.0456 41.4727 20.5273 40.4961C21.0091 39.5065 21.5755 38.5755 22.2266 37.7031C22.8906 36.8307 23.6133 36.069 24.3945 35.418C25.1758 34.7669 25.9961 34.2526 26.8555 33.875C27.7279 33.4844 28.6133 33.2891 29.5117 33.2891C29.8112 33.2891 30.0456 33.3477 30.2148 33.4648C30.3841 33.582 30.5208 33.7188 30.625 33.875C30.7422 34.0182 30.8529 34.1615 30.957 34.3047C31.0612 34.4479 31.1914 34.5521 31.3477 34.6172C31.5039 34.6823 31.6602 34.7279 31.8164 34.7539C31.9857 34.7669 32.1549 34.7734 32.3242 34.7734C32.4674 34.7734 32.6107 34.7734 32.7539 34.7734C32.9102 34.7604 33.0599 34.7539 33.2031 34.7539C33.3984 34.7539 33.5807 34.7734 33.75 34.8125C33.9193 34.8516 34.069 34.9362 34.1992 35.0664C34.3294 35.1966 34.4271 35.3789 34.4922 35.6133C34.5703 35.8477 34.6094 36.1667 34.6094 36.5703C34.6094 37.1953 34.5443 37.8919 34.4141 38.6602C34.2839 39.4154 34.1406 40.1966 33.9844 41.0039C33.8281 41.7982 33.6849 42.599 33.5547 43.4062C33.4245 44.2005 33.3594 44.9557 33.3594 45.6719C33.3594 46.2839 33.4115 46.7656 33.5156 47.1172C33.6328 47.4557 33.8737 47.625 34.2383 47.625C34.5117 47.625 34.7982 47.5599 35.0977 47.4297C35.3971 47.2865 35.6966 47.1042 35.9961 46.8828C36.3086 46.6615 36.6146 46.4141 36.9141 46.1406C37.2266 45.8542 37.5195 45.5612 37.793 45.2617C38.431 44.5586 39.0755 43.7643 39.7266 42.8789L40.6641 47.2148ZM23.9844 45.6719C23.9844 45.9974 24.0039 46.3164 24.043 46.6289C24.0951 46.9284 24.1797 47.2018 24.2969 47.4492C24.4141 47.6836 24.5703 47.8789 24.7656 48.0352C24.9609 48.1784 25.2083 48.25 25.5078 48.25C25.9896 48.25 26.4258 48.0417 26.8164 47.625C27.207 47.2083 27.5456 46.707 27.832 46.1211C28.1185 45.5352 28.3464 44.9297 28.5156 44.3047C28.6979 43.6797 28.8151 43.1589 28.8672 42.7422L30.0586 37C29.5247 37 29.0039 37.1367 28.4961 37.4102C27.9883 37.6706 27.5065 38.0286 27.0508 38.4844C26.6081 38.9401 26.1979 39.4609 25.8203 40.0469C25.4427 40.6328 25.1172 41.2513 24.8438 41.9023C24.5703 42.5404 24.3555 43.1849 24.1992 43.8359C24.056 44.487 23.9844 45.099 23.9844 45.6719ZM38.3594 47.918C38.3594 47.0586 38.4115 46.069 38.5156 44.9492C38.6198 43.8164 38.75 42.6706 38.9062 41.5117C39.0625 40.3398 39.2383 39.2135 39.4336 38.1328C39.6289 37.0521 39.8177 36.1276 40 35.3594C40.1432 34.7604 40.4167 34.2591 40.8203 33.8555C41.237 33.4518 41.7969 33.25 42.5 33.25C43.2031 33.25 43.6914 33.4648 43.9648 33.8945C44.2383 34.3242 44.375 34.8971 44.375 35.6133C44.375 35.8086 44.3555 36.0755 44.3164 36.4141C44.2773 36.7396 44.2253 37.1042 44.1602 37.5078C44.1081 37.8984 44.0495 38.3086 43.9844 38.7383C43.9193 39.1549 43.8542 39.5456 43.7891 39.9102C43.737 40.2617 43.6914 40.5742 43.6523 40.8477C43.6133 41.1081 43.5938 41.2839 43.5938 41.375H43.9844C44.0625 41.2318 44.1862 41.0039 44.3555 40.6914C44.5247 40.3659 44.7201 39.9948 44.9414 39.5781C45.1628 39.1615 45.3971 38.7253 45.6445 38.2695C45.9049 37.8008 46.1458 37.3581 46.3672 36.9414C46.5885 36.5117 46.7904 36.1341 46.9727 35.8086C47.1549 35.4831 47.2917 35.2422 47.3828 35.0859C47.7995 34.3828 48.2747 33.901 48.8086 33.6406C49.3424 33.3802 49.9349 33.25 50.5859 33.25C51.237 33.25 51.7513 33.5234 52.1289 34.0703C52.5195 34.6172 52.7148 35.3724 52.7148 36.3359C52.7148 36.4792 52.6823 36.7201 52.6172 37.0586C52.5651 37.3971 52.4935 37.8008 52.4023 38.2695C52.3112 38.7383 52.207 39.2526 52.0898 39.8125C51.9857 40.3724 51.888 40.9453 51.7969 41.5312C51.7057 42.1172 51.6276 42.6966 51.5625 43.2695C51.5104 43.8424 51.4844 44.3698 51.4844 44.8516C51.4844 45.6589 51.582 46.3229 51.7773 46.8438C51.9857 47.3646 52.3047 47.625 52.7344 47.625C52.9297 47.625 53.151 47.5664 53.3984 47.4492C53.6589 47.332 53.9323 47.1823 54.2188 47C54.5182 46.8047 54.8177 46.5833 55.1172 46.3359C55.4297 46.0885 55.7357 45.8346 56.0352 45.5742C56.7253 44.9622 57.4479 44.2721 58.2031 43.5039L58.5352 47.8789L57.5586 48.6211C57.0247 49.0247 56.4779 49.4284 55.918 49.832C55.3711 50.2357 54.7982 50.6003 54.1992 50.9258C53.6003 51.2383 52.9753 51.4987 52.3242 51.707C51.6732 51.9023 50.9896 52 50.2734 52C49.5573 52 48.9518 51.4857 48.457 50.457C47.9753 49.4154 47.7344 47.8984 47.7344 45.9062C47.7344 45.125 47.7865 44.2852 47.8906 43.3867C47.9948 42.4753 48.125 41.4987 48.2812 40.457H47.9688L42.8516 50.6133C42.5911 51.1471 42.2982 51.5117 41.9727 51.707C41.6471 51.9023 41.2695 52 40.8398 52C40.306 52 39.8763 51.8893 39.5508 51.668C39.2253 51.4336 38.9714 51.1276 38.7891 50.75C38.6198 50.3594 38.5026 49.9232 38.4375 49.4414C38.3854 48.9466 38.3594 48.4388 38.3594 47.918ZM72.7344 47.625C71.4844 48.3542 70.3711 48.9922 69.3945 49.5391C68.418 50.0859 67.5456 50.5417 66.7773 50.9062C66.0221 51.2708 65.3451 51.5443 64.7461 51.7266C64.1602 51.9089 63.6263 52 63.1445 52C62.1549 52 61.2826 51.7005 60.5273 51.1016C59.7721 50.5026 59.1406 49.6432 58.6328 48.5234C58.125 47.3906 57.7409 46.0234 57.4805 44.4219C57.2331 42.8203 57.1094 41.0169 57.1094 39.0117C57.1094 38.2305 57.1419 37.3971 57.207 36.5117C57.2721 35.6263 57.3633 34.7474 57.4805 33.875C57.0898 33.8229 56.7839 33.7773 56.5625 33.7383C56.3542 33.6862 56.1263 33.6406 55.8789 33.6016C55.6445 33.5495 55.3385 33.4974 54.9609 33.4453C54.5964 33.3932 54.0625 33.3281 53.3594 33.25C53.0469 33.2109 52.806 33.1393 52.6367 33.0352C52.4674 32.918 52.3438 32.7878 52.2656 32.6445C52.1875 32.4883 52.1419 32.332 52.1289 32.1758C52.1159 32.0065 52.1094 31.8633 52.1094 31.7461C52.1094 31.4857 52.2396 31.2904 52.5 31.1602C52.7474 31.0169 53.0729 30.9128 53.4766 30.8477C53.8672 30.7826 54.2969 30.75 54.7656 30.75C55.2474 30.737 55.7031 30.737 56.1328 30.75C56.5755 30.763 56.9661 30.776 57.3047 30.7891C57.6562 30.7891 57.8971 30.776 58.0273 30.75C58.3789 28.9922 58.8216 27.293 59.3555 25.6523C59.9023 23.9987 60.5078 22.5339 61.1719 21.2578C61.849 19.9688 62.5846 18.9401 63.3789 18.1719C64.1732 17.3906 65.0065 17 65.8789 17C66.4388 17 66.9466 17.1562 67.4023 17.4688C67.8711 17.7812 68.2682 18.1979 68.5938 18.7188C68.9193 19.2396 69.1667 19.8516 69.3359 20.5547C69.5182 21.2448 69.6094 21.9674 69.6094 22.7227C69.6094 23.3607 69.5182 24.0378 69.3359 24.7539C69.1536 25.457 68.9062 26.1797 68.5938 26.9219C68.2812 27.651 67.9102 28.3932 67.4805 29.1484C67.0638 29.9036 66.6211 30.6523 66.1523 31.3945C66.2695 31.4076 66.4648 31.4206 66.7383 31.4336C67.0117 31.4336 67.3242 31.4401 67.6758 31.4531C68.0404 31.4661 68.431 31.4857 68.8477 31.5117C69.2643 31.5247 69.668 31.5378 70.0586 31.5508C70.4492 31.5638 70.8138 31.5768 71.1523 31.5898C71.4909 31.6029 71.7708 31.6159 71.9922 31.6289C72.2526 31.6419 72.4414 31.7721 72.5586 32.0195C72.6758 32.2669 72.7344 32.5794 72.7344 32.957C72.7344 33.4128 72.6042 33.7839 72.3438 34.0703C72.0833 34.3568 71.7969 34.5 71.4844 34.5H63.9844C63.6068 35.0208 63.2227 35.5352 62.832 36.043C62.4544 36.5378 62.1029 36.987 61.7773 37.3906C61.7253 38.1979 61.6797 38.9922 61.6406 39.7734C61.6276 40.112 61.6146 40.4635 61.6016 40.8281C61.5885 41.1797 61.5755 41.5312 61.5625 41.8828C61.5495 42.2344 61.5365 42.5729 61.5234 42.8984C61.5234 43.224 61.5234 43.5234 61.5234 43.7969C61.5234 44.5 61.5885 45.0924 61.7188 45.5742C61.849 46.056 62.0378 46.4531 62.2852 46.7656C62.5326 47.0651 62.832 47.2865 63.1836 47.4297C63.5482 47.5599 63.9518 47.625 64.3945 47.625C64.668 47.625 65.0065 47.5599 65.4102 47.4297C65.8268 47.2995 66.276 47.1237 66.7578 46.9023C67.2526 46.668 67.7669 46.3945 68.3008 46.082C68.8477 45.7695 69.3815 45.431 69.9023 45.0664C70.4362 44.6888 70.944 44.2982 71.4258 43.8945C71.9076 43.4779 72.3438 43.0547 72.7344 42.625V47.625ZM66.4844 22.8984C66.4844 22.7552 66.4714 22.599 66.4453 22.4297C66.4323 22.2474 66.3932 22.0781 66.3281 21.9219C66.263 21.7656 66.1589 21.6354 66.0156 21.5312C65.8854 21.4271 65.6966 21.375 65.4492 21.375C65.1107 21.375 64.7656 21.6745 64.4141 22.2734C64.0755 22.8724 63.7435 23.6406 63.418 24.5781C63.1055 25.5026 62.806 26.5247 62.5195 27.6445C62.2461 28.7643 61.9922 29.8516 61.7578 30.9062C61.9531 30.9323 62.1484 30.9583 62.3438 30.9844C62.5391 30.9974 62.7409 31.0169 62.9492 31.043C63.3398 30.3789 63.7435 29.6628 64.1602 28.8945C64.5898 28.1133 64.974 27.3516 65.3125 26.6094C65.651 25.8542 65.931 25.151 66.1523 24.5C66.3737 23.849 66.4844 23.3151 66.4844 22.8984ZM78.75 52C77.526 52 76.4518 51.7786 75.5273 51.3359C74.6159 50.8932 73.8542 50.3008 73.2422 49.5586C72.6302 48.8034 72.168 47.9375 71.8555 46.9609C71.556 45.9714 71.4062 44.9362 71.4062 43.8555C71.4062 43.1263 71.4779 42.3581 71.6211 41.5508C71.7643 40.7305 71.9792 39.9297 72.2656 39.1484C72.5651 38.3672 72.9362 37.625 73.3789 36.9219C73.8216 36.2057 74.3359 35.5807 74.9219 35.0469C75.5208 34.5 76.1849 34.0703 76.9141 33.7578C77.6562 33.4323 78.4766 33.2695 79.375 33.2695C80.1042 33.2695 80.7812 33.3867 81.4062 33.6211C82.0312 33.8555 82.5716 34.1875 83.0273 34.6172C83.4961 35.0339 83.8607 35.5417 84.1211 36.1406C84.3815 36.7396 84.5117 37.4102 84.5117 38.1523C84.5117 38.9596 84.3099 39.7669 83.9062 40.5742C83.5156 41.3815 82.9688 42.1432 82.2656 42.8594C81.5625 43.5755 80.7227 44.2135 79.7461 44.7734C78.7826 45.3333 77.7344 45.7695 76.6016 46.082C76.7969 46.4336 76.9857 46.7266 77.168 46.9609C77.3633 47.1953 77.5586 47.3776 77.7539 47.5078C77.9492 47.638 78.151 47.7292 78.3594 47.7812C78.5807 47.8333 78.8151 47.8594 79.0625 47.8594C79.8438 47.8594 80.6641 47.7031 81.5234 47.3906C82.3958 47.0781 83.2422 46.6875 84.0625 46.2188C84.8828 45.75 85.6576 45.2422 86.3867 44.6953C87.1159 44.1354 87.7344 43.6081 88.2422 43.1133L90.7617 45.7305C89.6159 46.9154 88.3984 47.9635 87.1094 48.875C86.5495 49.2656 85.944 49.6497 85.293 50.0273C84.6549 50.4049 83.9779 50.7435 83.2617 51.043C82.5586 51.3294 81.8229 51.5638 81.0547 51.7461C80.2995 51.9154 79.5312 52 78.75 52ZM76.1523 42.8203C76.6211 42.8203 77.1289 42.7031 77.6758 42.4688C78.2357 42.2214 78.75 41.9089 79.2188 41.5312C79.7005 41.1536 80.1042 40.7435 80.4297 40.3008C80.7552 39.8581 80.918 39.4284 80.918 39.0117C80.918 38.4258 80.8073 37.944 80.5859 37.5664C80.3776 37.1888 80.1172 37 79.8047 37C79.2448 37 78.763 37.1042 78.3594 37.3125C77.9688 37.5208 77.6367 37.7943 77.3633 38.1328C77.1029 38.4583 76.888 38.8359 76.7188 39.2656C76.5625 39.6823 76.4388 40.1055 76.3477 40.5352C76.2695 40.9648 76.2174 41.3815 76.1914 41.7852C76.1654 42.1888 76.1523 42.5339 76.1523 42.8203ZM91.8945 52C91.1914 52 90.5339 51.694 89.9219 51.082C89.3229 50.457 88.7956 49.6237 88.3398 48.582C87.8971 47.5404 87.5456 46.3359 87.2852 44.9688C87.0378 43.5885 86.9141 42.1432 86.9141 40.6328C86.9141 39.474 86.9987 38.2174 87.168 36.8633C87.3372 35.4961 87.5846 34.0898 87.9102 32.6445C88.2357 31.1992 88.6198 29.7474 89.0625 28.2891C89.5182 26.8307 90.026 25.431 90.5859 24.0898C91.1589 22.7487 91.7773 21.4987 92.4414 20.3398C93.1055 19.168 93.8021 18.1523 94.5312 17.293C95.2604 16.4206 96.0221 15.737 96.8164 15.2422C97.6107 14.7474 98.418 14.5 99.2383 14.5C99.7982 14.5 100.26 14.6302 100.625 14.8906C100.99 15.138 101.276 15.4701 101.484 15.8867C101.693 16.3034 101.836 16.7786 101.914 17.3125C102.005 17.8333 102.051 18.3672 102.051 18.9141C102.051 20.138 101.908 21.388 101.621 22.6641C101.348 23.9271 100.97 25.2031 100.488 26.4922C100.02 27.7682 99.4727 29.0508 98.8477 30.3398C98.2227 31.6289 97.5716 32.9115 96.8945 34.1875C96.2174 35.4505 95.5339 36.7005 94.8438 37.9375C94.1667 39.1615 93.5286 40.3594 92.9297 41.5312C92.8646 41.6615 92.793 41.8307 92.7148 42.0391C92.6497 42.2474 92.5846 42.4753 92.5195 42.7227C92.4544 42.957 92.3893 43.2109 92.3242 43.4844C92.2591 43.7578 92.207 44.0247 92.168 44.2852V44.5586C92.168 44.8971 92.2005 45.2292 92.2656 45.5547C92.3438 45.8672 92.4349 46.1536 92.5391 46.4141C92.6432 46.6615 92.7539 46.8633 92.8711 47.0195C92.9883 47.1628 93.099 47.2344 93.2031 47.2344C93.4505 47.2344 93.7305 47.1823 94.043 47.0781C94.3685 46.974 94.707 46.8372 95.0586 46.668C95.4232 46.4857 95.7943 46.2839 96.1719 46.0625C96.5495 45.8281 96.9141 45.5938 97.2656 45.3594C98.0859 44.8125 98.9453 44.181 99.8438 43.4648L101.445 47.5664C100.286 48.3997 99.1406 49.1419 98.0078 49.793C97.513 50.0664 96.9987 50.3398 96.4648 50.6133C95.944 50.8737 95.4167 51.1081 94.8828 51.3164C94.349 51.5247 93.8281 51.694 93.3203 51.8242C92.8125 51.9414 92.3372 52 91.8945 52ZM91.9141 36.375C92.5 35.3333 93.1185 34.1615 93.7695 32.8594C94.4336 31.5573 95.0586 30.2161 95.6445 28.8359C96.2305 27.4557 96.7383 26.082 97.168 24.7148C97.5977 23.3346 97.8711 22.0521 97.9883 20.8672C97.9883 20.4896 97.9753 20.1706 97.9492 19.9102C97.9362 19.6367 97.8776 19.5 97.7734 19.5C97.3958 19.5 96.9857 19.7474 96.543 20.2422C96.1133 20.724 95.6771 21.3815 95.2344 22.2148C94.8047 23.0482 94.388 24.0182 93.9844 25.125C93.5938 26.2318 93.2422 27.4102 92.9297 28.6602C92.6172 29.9102 92.3698 31.1992 92.1875 32.5273C92.0052 33.8424 91.9141 35.125 91.9141 36.375ZM119.219 47.2148C118.919 47.6315 118.516 48.1198 118.008 48.6797C117.513 49.2396 116.953 49.7734 116.328 50.2812C115.703 50.7891 115.033 51.2188 114.316 51.5703C113.6 51.9219 112.884 52.0977 112.168 52.0977C111.309 52.0977 110.592 51.8242 110.02 51.2773C109.447 50.7174 108.952 49.9102 108.535 48.8555C108.223 49.2201 107.839 49.5911 107.383 49.9688C106.927 50.3464 106.426 50.6914 105.879 51.0039C105.345 51.3034 104.785 51.5508 104.199 51.7461C103.613 51.9414 103.027 52.0391 102.441 52.0391C101.816 52.0391 101.204 51.9154 100.605 51.668C100.02 51.4076 99.4987 51.043 99.043 50.5742C98.5872 50.0924 98.2227 49.513 97.9492 48.8359C97.6758 48.1458 97.5391 47.3711 97.5391 46.5117C97.5391 45.5352 97.6758 44.5326 97.9492 43.5039C98.2227 42.4753 98.6003 41.4727 99.082 40.4961C99.5638 39.5065 100.13 38.5755 100.781 37.7031C101.445 36.8307 102.168 36.069 102.949 35.418C103.73 34.7669 104.551 34.2526 105.41 33.875C106.283 33.4844 107.168 33.2891 108.066 33.2891C108.366 33.2891 108.6 33.3477 108.77 33.4648C108.939 33.582 109.076 33.7188 109.18 33.875C109.297 34.0182 109.408 34.1615 109.512 34.3047C109.616 34.4479 109.746 34.5521 109.902 34.6172C110.059 34.6823 110.215 34.7279 110.371 34.7539C110.54 34.7669 110.71 34.7734 110.879 34.7734C111.022 34.7734 111.165 34.7734 111.309 34.7734C111.465 34.7604 111.615 34.7539 111.758 34.7539C111.953 34.7539 112.135 34.7734 112.305 34.8125C112.474 34.8516 112.624 34.9362 112.754 35.0664C112.884 35.1966 112.982 35.3789 113.047 35.6133C113.125 35.8477 113.164 36.1667 113.164 36.5703C113.164 37.1953 113.099 37.8919 112.969 38.6602C112.839 39.4154 112.695 40.1966 112.539 41.0039C112.383 41.7982 112.24 42.599 112.109 43.4062C111.979 44.2005 111.914 44.9557 111.914 45.6719C111.914 46.2839 111.966 46.7656 112.07 47.1172C112.188 47.4557 112.428 47.625 112.793 47.625C113.066 47.625 113.353 47.5599 113.652 47.4297C113.952 47.2865 114.251 47.1042 114.551 46.8828C114.863 46.6615 115.169 46.4141 115.469 46.1406C115.781 45.8542 116.074 45.5612 116.348 45.2617C116.986 44.5586 117.63 43.7643 118.281 42.8789L119.219 47.2148ZM102.539 45.6719C102.539 45.9974 102.559 46.3164 102.598 46.6289C102.65 46.9284 102.734 47.2018 102.852 47.4492C102.969 47.6836 103.125 47.8789 103.32 48.0352C103.516 48.1784 103.763 48.25 104.062 48.25C104.544 48.25 104.98 48.0417 105.371 47.625C105.762 47.2083 106.1 46.707 106.387 46.1211C106.673 45.5352 106.901 44.9297 107.07 44.3047C107.253 43.6797 107.37 43.1589 107.422 42.7422L108.613 37C108.079 37 107.559 37.1367 107.051 37.4102C106.543 37.6706 106.061 38.0286 105.605 38.4844C105.163 38.9401 104.753 39.4609 104.375 40.0469C103.997 40.6328 103.672 41.2513 103.398 41.9023C103.125 42.5404 102.91 43.1849 102.754 43.8359C102.611 44.487 102.539 45.099 102.539 45.6719Z" fill="#1F3E97"/>
<g clip-path="url(#clip0_156_190)">
<path d="M119.5 28C119.5 28.9283 119.869 29.8185 120.525 30.4749C121.182 31.1313 122.072 31.5 123 31.5C123.928 31.5 124.818 31.1313 125.475 30.4749C126.131 29.8185 126.5 28.9283 126.5 28C126.5 27.0717 126.131 26.1815 125.475 25.5251C124.818 24.8687 123.928 24.5 123 24.5C122.072 24.5 121.182 24.8687 120.525 25.5251C119.869 26.1815 119.5 27.0717 119.5 28ZM127 28C127 29.0609 126.579 30.0783 125.828 30.8284C125.078 31.5786 124.061 32 123 32C121.939 32 120.922 31.5786 120.172 30.8284C119.421 30.0783 119 29.0609 119 28C119 26.9391 119.421 25.9217 120.172 25.1716C120.922 24.4214 121.939 24 123 24C124.061 24 125.078 24.4214 125.828 25.1716C126.579 25.9217 127 26.9391 127 28ZM121.75 26.001H123.305C124.16 26.001 124.675 26.4875 124.675 27.231C124.675 27.8 124.342 28.201 123.928 28.351L124.75 30H123.99L123.26 28.462H122.418V30H121.75V26.001ZM122.418 26.546V27.9345H123.192C123.689 27.9345 123.978 27.703 123.978 27.2545C123.978 26.798 123.681 26.546 123.21 26.546H122.418Z" fill="#1F3E97"/>
</g>
<defs>
<clipPath id="clip0_156_190">
<rect width="8" height="8" fill="white" transform="translate(119 24)"/>
</clipPath>
</defs>
</svg>
